<?xml version="1.0" encoding="iso-8859-1"?>
<!-- Generator: Adobe Illustrator 18.0.0, SVG Export Plug-In . SVG Version: 6.00 Build 0)  -->
<!DOCTYPE svg PUBLIC "-//W3C//DTD SVG 1.1//EN" "http://www.w3.org/Graphics/SVG/1.1/DTD/svg11.dtd">
<svg xmlns="http://www.w3.org/2000/svg" xmlns:xlink="http://www.w3.org/1999/xlink" version="1.1" id="Capa_1" x="0px" y="0px" viewBox="0 0 456.979 456.979" style="enable-background:new 0 0 456.979 456.979;" xml:space="preserve" width="512px" height="512px">
<g>
	<path d="M196.797,162.934V6.979c0-3.313-2.687-6-6-6s-6,2.687-6,6v155.955c-10.893,2.695-18.995,12.548-18.995,24.262   s8.102,21.567,18.995,24.261v191.442c0,23.203-18.877,42.08-42.08,42.08s-42.08-18.877-42.08-42.08v-14.044   c2.45,3.456,5.388,6.915,8.912,10.187c2.429,2.257,6.225,2.114,8.479-0.313c2.254-2.429,2.114-6.225-0.314-8.479   c-14.693-13.645-17.098-31.758-17.118-31.92c-0.354-3.014-2.905-5.278-5.94-5.289c-0.007,0-0.014,0-0.021,0   c-3.026,0-5.581,2.265-5.955,5.27c-0.022,0.182-2.428,18.295-17.121,31.939c-2.428,2.255-2.568,6.051-0.313,8.479   c1.182,1.272,2.788,1.917,4.398,1.917c1.461,0,2.926-0.53,4.082-1.604c3.523-3.272,6.462-6.731,8.912-10.187v14.045   c0,29.82,24.26,54.08,54.08,54.08s54.08-24.26,54.08-54.08V211.458c10.893-2.695,18.995-12.547,18.995-24.261   S207.69,165.629,196.797,162.934z M190.797,200.19c-7.165,0-12.995-5.829-12.995-12.994c0-5.001,2.844-9.344,6.995-11.516v11.516   c0,3.313,2.687,6,6,6s6-2.687,6-6v-11.516c4.151,2.172,6.995,6.515,6.995,11.516C203.792,194.361,197.962,200.19,190.797,200.19z" fill="#006DF0"/>
	<path d="M364.711,206.058c-9.757-14.085-21.69-24.063-34.783-29.346l-6.791-161.933C322.792,6.492,316.025,0,307.732,0   c-8.294,0-15.061,6.492-15.405,14.778l-6.791,161.934c-13.092,5.283-25.025,15.261-34.782,29.345   c-14.59,21.062-22.626,48.958-22.626,78.548s8.036,57.485,22.626,78.548c10.931,15.779,24.593,26.405,39.558,31.047l2.015,47.998   c0.344,8.289,7.111,14.781,15.405,14.781c8.293,0,15.06-6.492,15.405-14.778l2.015-48c14.965-4.641,28.628-15.268,39.56-31.048   c14.591-21.063,22.626-48.958,22.626-78.548S379.302,227.119,364.711,206.058z M373.772,263.141H241.694   c0.589-3.992,1.34-7.895,2.24-11.694h127.598C372.432,255.246,373.182,259.149,373.772,263.141z M304.317,15.278   c0.077-1.838,1.577-3.278,3.416-3.278c1.838,0,3.339,1.44,3.416,3.28l6.624,157.94c-3.301-0.575-6.652-0.867-10.038-0.867   c-3.387,0-6.738,0.292-10.04,0.867L304.317,15.278z M307.733,184.354c26.329,0,49.187,22.437,60.345,55.093H247.387   C258.545,206.791,281.404,184.354,307.733,184.354z M311.148,441.699c-0.077,1.84-1.577,3.28-3.416,3.28   c-1.839,0-3.339-1.44-3.416-3.282l-1.893-45.09c1.759,0.16,3.529,0.249,5.309,0.249c1.78,0,3.549-0.089,5.307-0.249   L311.148,441.699z M307.733,384.856c-37.277,0-67.604-44.973-67.604-100.251c0-3.192,0.106-6.348,0.303-9.465h134.602   c0.198,3.117,0.303,6.273,0.303,9.465C375.337,339.884,345.01,384.856,307.733,384.856z" fill="#006DF0"/>
</g>
<g>
</g>
<g>
</g>
<g>
</g>
<g>
</g>
<g>
</g>
<g>
</g>
<g>
</g>
<g>
</g>
<g>
</g>
<g>
</g>
<g>
</g>
<g>
</g>
<g>
</g>
<g>
</g>
<g>
</g>
</svg>
