<?xml version="1.0" encoding="iso-8859-1"?>
<!-- Generator: Adobe Illustrator 19.0.0, SVG Export Plug-In . SVG Version: 6.00 Build 0)  -->
<svg xmlns="http://www.w3.org/2000/svg" xmlns:xlink="http://www.w3.org/1999/xlink" version="1.1" id="Layer_1" x="0px" y="0px" viewBox="0 0 511.969 511.969" style="enable-background:new 0 0 511.969 511.969;" xml:space="preserve" width="512px" height="512px">
<g>
	<g>
		<path d="M365.628,110.634c-0.031-0.031-2.343-3.086-3.437-6.961c-1.312-4.546-0.5-7.858,2.687-11.062    c8.655-8.694,11.499-19.991,8.062-31.811c-2.343-7.953-6.843-13.562-7.405-14.257V46.52c-1.968-2.352-4.905-3.859-8.218-3.859    c-5.906,0-10.656,4.781-10.656,10.671c0,2.586,0.906,4.953,2.438,6.805c0.031,0.023,2.281,2.938,3.375,6.656    c1.25,4.358,0.469,7.577-2.719,10.765c-8.657,8.678-11.499,20.037-8.094,31.997c2.344,8.093,6.844,13.835,7.344,14.468v-0.008    c1.969,2.422,4.938,3.977,8.312,3.977c5.875,0,10.655-4.773,10.655-10.664c0-2.538-0.875-4.866-2.375-6.694H365.628z" fill="#FFFFFF"/>
	</g>
</g>
<g>
	<g>
		<path d="M280.51,110.915c-0.062-0.062-4.5-6.102-6.53-14.319c-2.461-9.836-0.5-18.187,5.999-25.538    c11.406-12.882,15.031-28.693,10.5-45.716c-3.188-11.944-9.312-20.226-10-21.132C278.51,1.656,275.449,0,271.98,0    c-5.882,0-10.663,4.772-10.663,10.663c0,2.406,0.812,4.625,2.156,6.406l-0.016,0.008c0.047,0.062,4.5,6.101,6.546,14.319    c2.445,9.835,0.484,18.187-6.015,25.537c-11.391,12.882-15.016,28.694-10.485,45.716c3.172,11.945,9.296,20.226,10,21.132    c1.953,2.555,5.015,4.211,8.476,4.211c5.905,0,10.687-4.773,10.687-10.664c0-2.405-0.812-4.624-2.156-6.405V110.915z" fill="#FFFFFF"/>
	</g>
</g>
<g>
	<g>
		<path d="M191.521,103.673c-1.312-4.546-0.5-7.858,2.688-11.062c8.656-8.694,11.53-19.991,8.062-31.811    c-2.312-7.93-6.781-13.522-7.375-14.249c-0.016,0-0.016-0.008-0.016-0.008l-0.016-0.023c-1.953-2.352-4.906-3.859-8.203-3.859    c-5.891,0-10.671,4.781-10.671,10.671c0,2.586,0.922,4.953,2.453,6.805c0.016,0.023,2.265,2.938,3.359,6.656    c1.281,4.358,0.469,7.577-2.703,10.765c-8.638,8.678-11.513,20.037-8.076,31.997c2.312,8.093,6.828,13.835,7.328,14.468v-0.008    c1.953,2.422,4.953,3.977,8.312,3.977c5.89,0,10.655-4.773,10.655-10.664c0-2.538-0.891-4.866-2.359-6.694    C194.943,110.603,192.632,107.548,191.521,103.673z" fill="#FFFFFF"/>
	</g>
</g>
<g>
	<g>
		<path d="M471.528,152.451c-2.094-2.086-4.843-3.133-7.562-3.125h-0.375H79.997c-2.734,0-5.468,1.039-7.546,3.125    c-4.156,4.164-4.156,10.914,0,15.077c2.078,2.086,4.812,3.125,7.546,3.125h1.188c0.797,7.242,2,14.358,3.578,21.335H48    c-2.734,0-5.468,1.039-7.546,3.125c-4.172,4.163-4.172,10.921,0,15.085c2.078,2.085,4.812,3.124,7.546,3.124h42.935    c16.64,47.092,51.137,85.754,95.354,107.846l-52.513,177.051c-1.094,3.641-0.203,7.75,2.672,10.625    c4.171,4.156,10.921,4.156,15.093,0c1.312-1.312,2.203-2.875,2.688-4.547l10.374-34.982h182.027    c0,23.561,19.124,42.654,42.686,42.654c23.561,0,42.653-19.094,42.653-42.654c0-23.576-19.093-42.684-42.653-42.684    c-0.281,0-0.562,0.031-0.844,0.031L357.66,321.168c56.996-28.467,97.807-84.433,105.118-150.515h0.812v-0.016    c2.844,0.102,5.749-0.922,7.937-3.109C475.684,163.365,475.684,156.615,471.528,152.451z M389.315,447.972    c11.749,0,21.311,9.563,21.311,21.342c0,11.75-9.562,21.312-21.311,21.312c-11.781,0-21.343-9.562-21.343-21.312    C367.971,457.535,377.534,447.972,389.315,447.972z M367.909,432.394c-6.437,3.734-11.812,9.125-15.53,15.578h-181.45    l35.091-118.305c0.656,0.25,1.312,0.469,1.969,0.703v53.605c0,11.781,9.546,21.342,21.327,21.342h85.314    c11.812,0,21.343-9.561,21.343-21.342V330.37c0.656-0.234,1.312-0.453,1.969-0.688L367.909,432.394z M229.315,383.976V336.54    c13.718,3.125,27.998,4.781,42.661,4.781c14.655,0,28.936-1.656,42.653-4.781v47.436h-10.655c0.001-2.719-1.03-5.469-3.124-7.531    c-4.155-4.188-10.905-4.188-15.093,0c-2.062,2.062-3.094,4.812-3.094,7.531h-21.35c0-2.719-1.031-5.469-3.125-7.531    c-4.156-4.188-10.921-4.188-15.077,0c-2.094,2.062-3.125,4.812-3.125,7.531H229.315z M429.25,215.744    c-8.593,20.319-20.905,38.576-36.591,54.254c-15.688,15.672-33.936,27.984-54.247,36.576    c-21.03,8.906-43.372,13.406-66.434,13.406c-23.037,0-45.395-4.5-66.41-13.406c-20.327-8.592-38.576-20.904-54.262-36.576    c-15.671-15.678-27.982-33.935-36.576-54.254c-6.125-14.468-10.171-29.568-12.093-45.091h11.171    c10.14,78.229,76.995,138.671,157.974,138.671c0.047,0,0.109,0,0.156-0.016c2.758,0.016,5.476-1.016,7.601-3.109    c4.156-4.172,4.156-10.936,0-15.092c-2.094-2.094-4.812-3.125-7.562-3.125c-0.055,0-0.117,0-0.195,0    c-18.639,0-36.7-3.656-53.699-10.844c-16.437-6.945-31.186-16.896-43.873-29.576c-12.671-12.679-22.624-27.436-29.576-43.864    c-4.5-10.64-7.609-21.694-9.296-33.045h306.004C439.405,186.175,435.343,201.276,429.25,215.744z" fill="#FFFFFF"/>
	</g>
</g>
<g>
	<g>
		<path d="M396.846,461.752c-4.156-4.155-10.906-4.155-15.093,0c-4.156,4.172-4.156,10.938,0,15.094    c4.188,4.156,10.938,4.156,15.093,0C401.002,472.69,401.002,465.924,396.846,461.752z" fill="#FFFFFF"/>
	</g>
</g>
<g>
</g>
<g>
</g>
<g>
</g>
<g>
</g>
<g>
</g>
<g>
</g>
<g>
</g>
<g>
</g>
<g>
</g>
<g>
</g>
<g>
</g>
<g>
</g>
<g>
</g>
<g>
</g>
<g>
</g>
</svg>
